<svg viewBox="0 0 1080 1080" fill="none" xmlns="http://www.w3.org/2000/svg">      <defs>  <filter id="filter" x="-20%" y="-20%" width="140%" height="140%" filterUnits="objectBoundingBox" primitiveUnits="userSpaceOnUse" color-interpolation-filters="linearRGB">    <feMorphology operator="dilate" radius="20 20" in="SourceAlpha" result="morphology"/>    <feFlood flood-color="#ffffff" flood-opacity="1" result="flood"/>    <feComposite in="flood" in2="morphology" operator="in" result="composite"/>    <feMerge result="merge">          <feMergeNode in="composite" result="mergeNode"/>      <feMergeNode in="SourceGraphic" result="mergeNode1"/>      </feMerge>  </filter></defs>      <g id="notion-avatar" filter="url(#filter)">        <g id="notion-avatar-face" fill="#ffffff">      <!--?xml version="1.0" encoding="UTF-8"?-->    <title>Face/ 4</title>    <g id="Face/-4" stroke="none" stroke-width="1" fill-rule="evenodd" stroke-linecap="round" stroke-linejoin="round">        <path d="M532,379 C664.54834,379 772,486.45166 772,619 C772,751.54834 764.54834,899 592,899 C462.715227,899 358.747776,816.220491 314.739381,718.954345 C313.831676,718.98455 312.917642,719 312,719 C267.81722,719 232,683.18278 232,639 C232,599.134956 261.158843,566.080325 299.312086,560.00055 C325.599297,455.979213 419.809919,379 532,379 Z M295.858895,624.545187 L304.141105,655.454813" id="Path" stroke="#000000" stroke-width="24"/>    </g>    </g><g id="notion-avatar-nose">      <g id="Nose/ 13"><path id="Path" fill-rule="evenodd" clip-rule="evenodd" d="M644 560C644 560 665.892 613.522 673 623C676 627 693.906 641.256 692.774 653.58C690.065 683.076 644 684.359 644 684.359C644 684.359 700 689.489 700 653.58C700 637.222 687 632 674 620C666.959 613.5 644 560 644 560Z" fill="black" stroke="black" stroke-width="6" stroke-linecap="round" stroke-linejoin="round"/></g>    </g><g id="notion-avatar-mouth">      <!--?xml version="1.0" encoding="UTF-8"?-->    <title>Mouth/ 1</title>    <g id="Mouth/-1" stroke="none" stroke-width="1" fill="none" fill-rule="evenodd" stroke-linecap="round" stroke-linejoin="round">        <path d="M549,759 C575.12979,773.666667 603.12979,781 633,781 C662.87021,781 682.87021,773.666667 693,759" id="Path" stroke="#000000" stroke-width="16"/>    </g>    </g><g id="notion-avatar-eyes">      <!--?xml version="1.0" encoding="UTF-8"?-->    <title>Eyes/ 4</title>    <g id="Eyes/-4" stroke="none" stroke-width="1" fill="none" fill-rule="evenodd">        <path d="M570,516 C583.254834,516 594,526.745166 594,540 C594,553.254834 583.254834,564 570,564 C556.745166,564 546,553.254834 546,540 C546,526.745166 556.745166,516 570,516 Z M708,516 C721.254834,516 732,526.745166 732,540 C732,553.254834 721.254834,564 708,564 C694.745166,564 684,553.254834 684,540 C684,526.745166 694.745166,516 708,516 Z M562,526 C558.686292,526 556,528.686292 556,532 C556,535.313708 558.686292,538 562,538 C565.313708,538 568,535.313708 568,532 C568,528.686292 565.313708,526 562,526 Z M700,526 C696.686292,526 694,528.686292 694,532 C694,535.313708 696.686292,538 700,538 C703.313708,538 706,535.313708 706,532 C706,528.686292 703.313708,526 700,526 Z" id="Combined-Shape" fill="#000000"/>    </g>    </g><g id="notion-avatar-eyebrows">      <g id="Eyebrows/ 11"><g id="Group"><path id="Path" fill-rule="evenodd" clip-rule="evenodd" d="M682.541 491.005C682.541 491.005 728.644 489.216 741.813 495.149C754.982 501.082 753.21 511.484 753.21 511.484C753.21 511.484 746.419 503.992 737.34 499.348C728.26 494.703 682.541 491.005 682.541 491.005Z" fill="black" stroke="black" stroke-width="8" stroke-linecap="round" stroke-linejoin="round"/><path id="Path_2" fill-rule="evenodd" clip-rule="evenodd" d="M595.459 491.005C595.459 491.005 549.356 489.216 536.187 495.149C523.018 501.082 524.79 511.484 524.79 511.484C524.79 511.484 531.581 503.992 540.66 499.348C549.74 494.703 595.459 491.005 595.459 491.005Z" fill="black" stroke="black" stroke-width="8" stroke-linecap="round" stroke-linejoin="round"/></g></g>    </g><g id="notion-avatar-glasses">      <!--?xml version="1.0" encoding="UTF-8"?-->    <title>Glasses/ 2</title>    <g id="Glasses/-2" stroke="none" stroke-width="1" fill="none" fill-rule="evenodd" stroke-linecap="round" stroke-linejoin="round">        <path d="M574.189838,502.353993 C586.612079,503.247679 601.018598,506.362134 617.409394,511.697357 C622.107339,513.226543 629.521032,514.112461 639.650474,514.355109 L640.336909,514.337568 C650.115498,514.071859 657.30038,513.191789 661.891553,511.697357 C678.282349,506.362134 692.688868,503.247679 705.11111,502.353993 C722.696433,501.088862 751.030506,503.214809 790.113329,508.731836 L791.300947,508.900056 L791.300947,529.629258 C786.297933,531.828279 783.752241,534.010301 783.663873,536.175322 C781.481852,589.634841 763.639862,606 723.65829,606 C685.15235,606 666.860184,585.095985 650.56058,541.630375 C648.424017,535.932875 644.892754,533.024776 639.966791,532.906078 L639.650474,532.90229 C634.559091,532.90229 630.922389,535.811651 628.740368,541.630375 C612.440763,585.095985 594.148598,606 555.642657,606 C515.661085,606 497.819095,589.634841 495.637074,536.175322 C495.548712,534.010446 493.003357,531.828573 488.00101,529.629702 L488,530 L289,550 L293,541 L487.999,509 L488,508.900056 C527.696939,503.258104 556.426885,501.076083 574.189838,502.353993 Z M564.611618,508.971486 C532.97231,506.789465 518.789172,513.335528 512.243109,520.972603 C505.697045,528.609677 493.695928,595.161324 551.51949,598.434355 C609.343052,601.707387 614.798105,534.06473 611.525073,526.427656 C608.252042,518.790581 596.250925,511.153507 564.611618,508.971486 Z M714.580942,508.971486 C682.941634,511.153507 670.940518,518.790581 667.667486,526.427656 C664.394454,534.06473 669.849507,601.707387 727.673069,598.434355 C785.496631,595.161324 773.495514,528.609677 766.949451,520.972603 C760.403387,513.335528 746.220249,506.789465 714.580942,508.971486 Z" id="Combined-Shape" stroke="#000000" stroke-width="4" fill="#000000"/>    </g>    </g><g id="notion-avatar-hair">      <!--?xml version="1.0" encoding="UTF-8"?-->    <title>Hairstyle/ 11</title>    <g id="Hairstyle/-11" stroke="none" stroke-width="1" fill="none" fill-rule="evenodd" stroke-linecap="round" stroke-linejoin="round">        <path d="M287.145773,564.824988 L328.116663,564.824988 L366,655 C368,609 370.666667,578.666667 374,564 C377.333333,549.333333 386,536 400,524 C404.686858,511.205454 408.020191,498.538788 410,486 C411.979809,473.461212 412.646475,460.794546 412,448 C431.277968,442.027683 448.944635,435.027683 465,427 C481.055365,418.972317 496.055365,409.638984 510,399 C541.018923,414.567133 564.018923,423.900467 579,427 C598.333333,431 625.666667,431 661,427 C677,435 690.333333,444.666667 701,456 C711.666667,467.333333 719.333333,477 724,485 C739.337022,483.068501 749.003689,474.068501 753,458 C758.994467,433.897248 749.308457,421.45399 753,385 C755.461029,360.69734 761.794362,334.364006 772,306 C756.671455,311.760083 745.671455,315.093417 739,316 C713.953321,319.403591 695.432317,316 684,316 C636.89228,316 645,282 615,272 C595,265.333333 574.900668,265.39119 554.702003,272.17357 C537.058392,259.349997 518.824391,250.958807 500,247 C481.175609,243.041193 457.508942,242.041193 429,244 C432.618992,252.559514 429.952325,263.892847 421,278 C407.571512,299.160729 404,300 392,311 C380,322 362,318 347,335 C337,346.333333 333,359.666667 335,375 C327.529566,375.74088 320.196232,377.74088 313,381 C305.803768,384.25912 299.470434,389.592453 294,397 C316.094259,401.247038 325.477218,404.098045 322.148877,405.553022 C298.10323,416.064523 271.638366,440.518688 265,458 C256.983334,479.110894 264.365258,514.719224 287.145773,564.824988 Z" id="Path" stroke="#000000" stroke-width="12" fill="#000000"/>    </g>    </g><g id="notion-avatar-accessories">      <!--?xml version="1.0" encoding="UTF-8"?-->    <title>Accessories/ 0</title>    <g id="Accessories/-0" stroke="none" stroke-width="1" fill="none" fill-rule="evenodd"/>    </g><g id="notion-avatar-details">      <!--?xml version="1.0" encoding="UTF-8"?-->    <title>Details/ 0</title>    <g id="Details/-0" stroke="none" stroke-width="1" fill="none" fill-rule="evenodd"/>    </g><g id="notion-avatar-beard">      <!--?xml version="1.0" encoding="UTF-8"?-->    <title>Beard/ 0</title>    <g id="Beard/-0" stroke="none" stroke-width="1" fill="none" fill-rule="evenodd"/>    </g>      </g>      </svg>